#!OML:ASF X:\für Bonn\!DataBase\2005_08_10_Bjorn_Final\c3d\bjorn.ASF
:FULLY-SPECIFIED
:DEGREES
808
root -0.155926 1.56227 10.2167 -2431.3 -3.24572 186.497
lowerback -0.278788 -0.0483796 -6.08286
upperback 3.94267 -0.00330196 -3.39368
thorax 4.23653 -0.247544 -0.116226
lowerneck -20.9899 -5.04751 -1.13841
upperneck 10.8195 -6.9458 3.69956
head 6.87764 -2.94749 0.578619
rclavicle 2.38542e-014 -1.94809e-014
rhumerus -426.054 53.6523 256.022
rradius 111.294
rwrist -32.6499
rhand 7.3298 8.47163
rfingers 7.12502
rthumb 32.5896 -18.6143
lclavicle 2.38542e-014 -1.94809e-014
lhumerus -65.9662 -66.6109 108.6
lradius 108.979
lwrist 37.8949
lhand -0.373516 -11.3999
lfingers 7.12502
lthumb 25.2326 736.952
rfemur -184.642 -158.689 184.519
rtibia 27.1727
rfoot 1.43495 -8.11785
rtoes 11.9134
lfemur 174.82 174.579 162.428
ltibia 23.256
lfoot 4.89132 14.44
ltoes 3.2746
809
root -0.155612 1.56182 10.2165 -2431.31 -3.2298 186.481
lowerback -0.277852 -0.0412953 -6.06961
upperback 3.96411 0.00597309 -3.38773
thorax 4.25794 -0.243796 -0.117379
lowerneck -21.046 -5.05761 -1.13203
upperneck 10.8414 -6.95981 3.68625
head 6.89339 -2.9537 0.570227
rclavicle 1.59028e-014 -3.10104e-014
rhumerus -426.031 53.6567 256.039
rradius 111.302
rwrist -32.6485
rhand 7.33305 8.44016
rfingers 7.12502
rthumb 32.5927 -18.6451
lclavicle 1.59028e-014 -3.10104e-014
lhumerus -65.9179 -66.6244 108.571
lradius 108.965
lwrist 37.8902
lhand -0.396234 -11.3608
lfingers 7.12502
lthumb 25.2108 736.994
rfemur -184.626 -158.711 184.534
rtibia 27.1725
rfoot 1.41092 -8.11115
rtoes 11.9998
lfemur 174.835 174.577 162.448
ltibia 23.2633
lfoot 4.86618 14.4575
ltoes 3.1756
810
root -0.155724 1.56177 10.2153 -2431.33 -3.22854 186.473
lowerback -0.282328 -0.043527 -6.07544
upperback 3.99443 0.00419711 -3.38372
thorax 4.29238 -0.246691 -0.110609
lowerneck -21.1485 -5.05025 -1.09883
upperneck 10.8768 -6.9548 3.65087
head 6.91876 -2.951 0.55167
rclavicle 1.59028e-014 -1.74931e-014
rhumerus -425.949 53.6913 256.1
rradius 111.298
rwrist -32.6567
rhand 7.36701 8.44858
rfingers 7.12502
rthumb 32.625 -18.63
lclavicle 1.59028e-014 -1.74931e-014
lhumerus -65.8119 -66.6287 108.482
lradius 108.952
lwrist 37.9099
lhand -0.392232 -11.3656
lfingers 7.12502
lthumb 25.2146 736.989
rfemur -184.608 -158.705 184.526
rtibia 27.1707
rfoot 1.42912 -8.07484
rtoes 12.0178
lfemur 174.85 174.6 162.448
ltibia 23.2741
lfoot 4.85802 14.4697
ltoes 3.0263
811
root -0.155952 1.5611 10.2143 -2431.34 -3.21487 186.473
lowerback -0.276374 -0.0457981 -6.07994
upperback 4.01453 0.00146381 -3.36066
thorax 4.3102 -0.24926 -0.0845839
lowerneck -21.1975 -5.0653 -1.14236
upperneck 10.8975 -6.96697 3.67178
head 6.93605 -2.95547 0.562525
rclavicle 3.4191e-014 -1.37161e-014
rhumerus -425.913 53.7267 256.156
rradius 111.311
rwrist -32.6928
rhand 7.38106 8.41838
rfingers 7.12502
rthumb 32.6383 -18.6574
lclavicle 3.4191e-014 -1.37161e-014
lhumerus -65.7621 -66.6039 108.479
lradius 108.942
lwrist 37.9042
lhand -0.426077 -11.3433
lfingers 7.12502
lthumb 25.1822 737.016
rfemur -184.592 -158.711 184.535
rtibia 27.1737
rfoot 1.42602 -8.07468
rtoes 11.9749
lfemur 174.869 174.606 162.465
ltibia 23.2815
lfoot 4.82035 14.4857
ltoes 3.25481
812
root -0.156183 1.56114 10.2137 -2431.37 -3.19699 186.46
lowerback -0.270493 -0.0390859 -6.0584
upperback 4.04649 0.00962349 -3.3643
thorax 4.33982 -0.246346 -0.100494
lowerneck -21.305 -5.06396 -1.0798
upperneck 10.9467 -6.97707 3.62634
head 6.96572 -2.95895 0.534026
rclavicle -1.27222e-014 4.90004e-014
rhumerus -425.829 53.7369 256.213
rradius 111.308
rwrist -32.708
rhand 7.41202 8.44187
rfingers 7.12502
rthumb 32.6678 -18.6279
lclavicle -1.27222e-014 4.90004e-014
lhumerus -65.6916 -66.6516 108.41
lradius 108.939
lwrist 37.9101
lhand -0.451651 -11.3035
lfingers 7.12502
lthumb 25.1577 737.059
rfemur -184.568 -158.722 184.544
rtibia 27.1769
rfoot 1.43589 -8.05762
rtoes 11.9807
lfemur 174.895 174.62 162.484
ltibia 23.289
lfoot 4.79039 14.5101
ltoes 3.26285
813
root -0.156504 1.56157 10.2132 -2431.38 -3.19673 186.451
lowerback -0.288854 -0.0366746 -6.06278
upperback 4.08449 0.0153021 -3.35766
thorax 4.3899 -0.246146 -0.0917309
lowerneck -21.4196 -5.07107 -1.05076
upperneck 10.9968 -6.98927 3.57665
head 6.99775 -2.96562 0.5089
rclavicle -7.15625e-015 4.01545e-014
rhumerus -425.734 53.7672 256.295
rradius 111.309
rwrist -32.7384
rhand 7.4213 8.43289
rfingers 7.12502
rthumb 32.6766 -18.635
lclavicle -7.15625e-015 4.01545e-014
lhumerus -65.5322 -66.6563 108.292
lradius 108.904
lwrist 37.9426
lhand -0.435695 -11.3105
lfingers 7.12502
lthumb 25.173 737.05
rfemur -184.557 -158.672 184.53
rtibia 27.1819
rfoot 1.49855 -8.00443
rtoes 11.8711
lfemur 174.915 174.711 162.473
ltibia 23.2928
lfoot 4.70374 14.5957
ltoes 3.28456
814
root -0.156342 1.56114 10.2125 -2431.41 -3.19575 186.45
lowerback -0.264993 -0.0402564 -6.07212
upperback 4.10767 0.00891207 -3.35264
thorax 4.40097 -0.250829 -0.0818405
lowerneck -21.4816 -5.0684 -1.02868
upperneck 11.0109 -6.98848 3.55304
head 7.01056 -2.96529 0.496447
rclavicle 1.82882e-014 -3.81667e-014
rhumerus -425.696 53.7999 256.33
rradius 111.311
rwrist -32.753
rhand 7.46629 8.44821
rfingers 7.12502
rthumb 32.7194 -18.6108
lclavicle 1.82882e-014 -3.81667e-014
lhumerus -65.4731 -66.6467 108.247
lradius 108.884
lwrist 37.9487
lhand -0.448411 -11.3195
lfingers 7.12502
lthumb 25.1608 737.042
rfemur -184.523 -158.69 184.521
rtibia 27.1845
rfoot 1.49997 -8.0145
rtoes 11.9126
lfemur 174.946 174.715 162.477
ltibia 23.2992
lfoot 4.68436 14.6145
ltoes 3.28979
